<svg width="24" height="24" viewBox="0 0 24 24" fill="none" xmlns="http://www.w3.org/2000/svg">
<path d="M19 13C19 13.9193 18.8189 14.8295 18.4672 15.6788C18.1154 16.5281 17.5998 17.2997 16.9497 17.9497C16.2997 18.5998 15.5281 19.1154 14.6788 19.4672C13.8295 19.8189 12.9193 20 12 20C11.0807 20 10.1705 19.8189 9.32122 19.4672C8.47194 19.1154 7.70026 18.5998 7.05025 17.9497C6.40024 17.2997 5.88463 16.5281 5.53284 15.6788C5.18106 14.8295 5 13.9193 5 13C5 11.1435 5.7375 9.36301 7.05025 8.05025C8.36301 6.7375 10.1435 6 12 6C13.8565 6 15.637 6.7375 16.9497 8.05025C18.2625 9.36301 19 11.1435 19 13Z" stroke="#415058" stroke-width="1.5" stroke-linecap="round" stroke-linejoin="round"/>
<path d="M12 11V13.5L13.5 15" stroke="#415058" stroke-width="1.5" stroke-linecap="round" stroke-linejoin="round"/>
<path d="M7 4L4 7" stroke="#415058" stroke-width="1.5" stroke-linecap="round" stroke-linejoin="round"/>
<path d="M17 4L20 7" stroke="#415058" stroke-width="1.5" stroke-linecap="round" stroke-linejoin="round"/>
</svg>
