<svg width="24" height="24" viewBox="0 0 24 24" fill="none" xmlns="http://www.w3.org/2000/svg">
<path d="M12 20.166C11.4814 20.166 10.9629 20.2201 10.4528 20.3283C8.59189 20.723 6.70132 19.7995 5.86872 18.0891C5.64125 17.6218 5.41846 17.2122 5.21048 16.8298C4.52467 15.5689 4 14.6043 4 12.8436V11.7725C4 9.68903 6 7.00006 9 7.00006C10 7.00006 12 7.5 12 7.5C12 7.5 14 7.00006 15 7.00006C16.4041 7.00006 17.5892 7.5891 18.4526 8.4294C17.5821 8.95452 17 9.90931 17 11.0001C17 12.6277 18.2963 13.9527 19.9128 13.9988C19.7363 15.0892 19.3092 15.8744 18.7895 16.8298C18.5815 17.2122 18.3588 17.6218 18.1313 18.0891C17.2987 19.7995 15.4081 20.723 13.5472 20.3283C13.0371 20.2201 12.5186 20.166 12 20.166Z" stroke="#415058" stroke-width="1.5" stroke-linecap="round" stroke-linejoin="round"/>
<path d="M14.5607 3.12237C14.5607 3.12237 14.4393 3.9508 13.8536 4.53658C13.2678 5.12237 12.4393 5.24369 12.4393 5.24369C12.4393 5.24369 12.5607 4.41526 13.1464 3.82948C13.7322 3.24369 14.5607 3.12237 14.5607 3.12237Z" stroke="#415058" stroke-width="1.5" stroke-linecap="round" stroke-linejoin="round"/>
</svg>
