<svg width="24" height="24" viewBox="0 0 24 24" fill="none" xmlns="http://www.w3.org/2000/svg">
<path d="M3.23471 6.03528L4.26999 9.89899L8.13369 8.86371" stroke="#415058" stroke-width="1.5" stroke-linecap="round" stroke-linejoin="round"/>
<path d="M20.4927 17.8942L19.4574 14.0305L15.5937 15.0657" stroke="#415058" stroke-width="1.5" stroke-linecap="round" stroke-linejoin="round"/>
<path d="M19.7274 9.92945C19.2716 8.22838 18.2672 6.72525 16.8701 5.65317C15.4729 4.5811 13.7611 4 12 4C10.2389 4 8.52705 4.5811 7.1299 5.65317C5.73275 6.72525 4.72838 8.22838 4.27258 9.92945" stroke="#415058" stroke-width="1.5" stroke-linecap="round" stroke-linejoin="round"/>
<path d="M3.99999 14C4.45579 15.7011 5.46015 17.2042 6.8573 18.2763C8.25446 19.3483 9.96632 19.9294 11.7274 19.9294C13.4885 19.9294 15.2003 19.3483 16.5975 18.2763C17.9946 17.2042 18.999 15.7011 19.4548 14" stroke="#415058" stroke-width="1.5" stroke-linecap="round" stroke-linejoin="round"/>
</svg>
