<svg width="24" height="24" viewBox="0 0 24 24" fill="none" xmlns="http://www.w3.org/2000/svg">
<path d="M4 4L20 20" stroke="#415058" stroke-width="1.5" stroke-linecap="round" stroke-linejoin="round"/>
<path d="M5.34315 8H5C4.44772 8 4 8.44772 4 9V18C4 18.5523 4.44772 19 5 19H16.3431M20 17V9C20 8.44772 19.5523 8 19 8H16C15.4477 8 15 7.55228 15 7V6C15 5.44772 14.5523 5 14 5H10C9.44772 5 9 5.44772 9 6" stroke="#415058" stroke-width="1.5" stroke-linecap="round" stroke-linejoin="round"/>
<path d="M9.21809 11.8749C9.07745 12.2224 9 12.6021 9 13C9 14.6569 10.3431 16 12 16C12.3979 16 12.7776 15.9226 13.1251 15.7819M13.2914 10.2914C13.9108 10.5872 14.4128 11.0892 14.7086 11.7086" stroke="#415058" stroke-width="1.5" stroke-linecap="round" stroke-linejoin="round"/>
</svg>
