<svg width="24" height="24" viewBox="0 0 24 24" fill="none" xmlns="http://www.w3.org/2000/svg">
<path d="M21 12C21 13.1819 20.7672 14.3522 20.3149 15.4442C19.8626 16.5361 19.1997 17.5282 18.364 18.364C17.5282 19.1997 16.5361 19.8626 15.4442 20.3149C14.3522 20.7672 13.1819 21 12 21C10.8181 21 9.64778 20.7672 8.55585 20.3149C7.46392 19.8626 6.47177 19.1997 5.63604 18.364C4.80031 17.5282 4.13738 16.5361 3.68508 15.4442C3.23279 14.3522 3 13.1819 3 12C3 9.61305 3.94821 7.32387 5.63604 5.63604C7.32387 3.94821 9.61305 3 12 3C14.3869 3 16.6761 3.94821 18.364 5.63604C20.0518 7.32387 21 9.61305 21 12Z" stroke="#415058" stroke-width="1.5" stroke-linecap="round" stroke-linejoin="round"/>
<path d="M12 16H12.01" stroke="#415058" stroke-width="1.5" stroke-linecap="round" stroke-linejoin="round"/>
<path d="M10 8.98762C10.2442 8.62218 10.5912 8.33735 10.9973 8.16916C11.4034 8.00096 11.8502 7.95696 12.2812 8.0427C12.7123 8.12845 13.1083 8.34009 13.4191 8.65088C13.7298 8.96166 13.9415 9.35762 14.0272 9.78869C14.113 10.2198 14.069 10.6666 13.9008 11.0726C13.7326 11.4787 13.4478 11.8258 13.0823 12.0699C12.7169 12.3141 12.2872 12.4444 11.8477 12.4444V13" stroke="#415058" stroke-width="1.5" stroke-linecap="round" stroke-linejoin="round"/>
</svg>
