<svg width="24" height="24" viewBox="0 0 24 24" fill="none" xmlns="http://www.w3.org/2000/svg">
<path d="M9 5H7C6.44772 5 6 5.44772 6 6V19C6 19.5523 6.44772 20 7 20H17C17.5523 20 18 19.5523 18 19V6C18 5.44772 17.5523 5 17 5H15M10 7H14C14.5523 7 15 6.66421 15 6.25V4.75C15 4.33579 14.5523 4 14 4H10C9.44772 4 9 4.33579 9 4.75V6.25C9 6.66421 9.44772 7 10 7Z" stroke="#415058" stroke-width="1.5" stroke-linecap="round" stroke-linejoin="round"/>
<path d="M10 13H14" stroke="#415058" stroke-width="1.5" stroke-linecap="round" stroke-linejoin="round"/>
<path d="M10 10H14" stroke="#415058" stroke-width="1.5" stroke-linecap="round" stroke-linejoin="round"/>
<path d="M10 16H11" stroke="#415058" stroke-width="1.5" stroke-linecap="round" stroke-linejoin="round"/>
</svg>
