<svg width="24" height="24" viewBox="0 0 24 24" fill="none" xmlns="http://www.w3.org/2000/svg">
<path d="M14 15L12 13L10 15" stroke="#415058" stroke-width="1.5" stroke-linecap="round" stroke-linejoin="round"/>
<path d="M12 20L12 13" stroke="#415058" stroke-width="1.5" stroke-linecap="round" stroke-linejoin="round"/>
<path d="M6 16C3.79086 16 2 14.2091 2 12C2 9.79086 3.79086 8 6 8C6.03335 8 6.06661 8.00041 6.09977 8.00122C6.56257 5.71837 8.58061 4 11 4C13.6087 4 15.7508 5.99781 15.9797 8.54693C16.5726 8.1993 17.2631 8 18 8C20.2091 8 22 9.79086 22 12C22 14.2091 20.2091 16 18 16" stroke="#415058" stroke-width="1.5" stroke-linecap="round" stroke-linejoin="round"/>
</svg>
