<svg width="24" height="24" viewBox="0 0 24 24" fill="none" xmlns="http://www.w3.org/2000/svg">
<path d="M8 4H6C4.89543 4 4 4.89543 4 6V8" stroke="#415058" stroke-width="1.5" stroke-linecap="round" stroke-linejoin="round"/>
<path d="M20 8L20 6C20 4.89543 19.1046 4 18 4L16 4" stroke="#415058" stroke-width="1.5" stroke-linecap="round" stroke-linejoin="round"/>
<path d="M16 20L18 20C19.1046 20 20 19.1046 20 18V16" stroke="#415058" stroke-width="1.5" stroke-linecap="round" stroke-linejoin="round"/>
<path d="M4 16L4 18C4 19.1046 4.89543 20 6 20L8 20" stroke="#415058" stroke-width="1.5" stroke-linecap="round" stroke-linejoin="round"/>
<path d="M10 14C10 15.1046 10.8954 16 12 16C13.1046 16 14 15.1046 14 14" stroke="#415058" stroke-width="1.5" stroke-linecap="round" stroke-linejoin="round"/>
<path d="M8 9H8.1" stroke="#415058" stroke-width="2" stroke-linecap="round" stroke-linejoin="round"/>
<path d="M16 9H16.1" stroke="#415058" stroke-width="2" stroke-linecap="round" stroke-linejoin="round"/>
</svg>
