<svg width="24" height="24" viewBox="0 0 24 24" fill="none" xmlns="http://www.w3.org/2000/svg">
<path d="M3 12C3 7.02944 7.02944 3 12 3C13.4368 3 14.795 3.33671 16 3.93552M21 12C21 9.69494 20.1334 7.59227 18.7083 6M18 12C18 8.68629 15.3137 6 12 6C10.208 6 8.59942 6.78563 7.5 8.03126M19.0687 17.5713C18.8644 17.0608 18.6873 16.5364 18.5392 16M16.7112 19.6699C15.6137 17.3431 15 14.7432 15 12C15 10.3431 13.6569 9 12 9C10.3431 9 9 10.3431 9 12C9 13.7146 9.1798 15.3872 9.52158 17M13.9243 20.7938C13.2272 19.2841 12.704 17.6776 12.3805 16M12 12C12 12.6746 12.0318 13.3417 12.094 14M10.7075 20.9079C10.4581 20.2844 10.2342 19.648 10.0369 19M6.34141 10C6.12031 10.6256 6 11.2987 6 12C6 14.0622 6.23118 16.0703 6.66905 18" stroke="#415058" stroke-width="1.5" stroke-linecap="round" stroke-linejoin="round"/>
</svg>
