<svg width="24" height="24" viewBox="0 0 24 24" fill="none" xmlns="http://www.w3.org/2000/svg">
<path d="M5 6C5 5.44772 5.44772 5 6 5H10C10.5523 5 11 5.44772 11 6V10C11 10.5523 10.5523 11 10 11H6C5.44772 11 5 10.5523 5 10V6Z" stroke="#415058" stroke-width="1.5" stroke-linecap="round" stroke-linejoin="round"/>
<path d="M5 15C5 14.4477 5.44772 14 6 14H9C9.55228 14 10 14.4477 10 15V18C10 18.5523 9.55228 19 9 19H6C5.44772 19 5 18.5523 5 18V15Z" stroke="#415058" stroke-width="1.5" stroke-linecap="round" stroke-linejoin="round"/>
<path d="M14 6C14 5.44772 14.4477 5 15 5H18C18.5523 5 19 5.44772 19 6V9C19 9.55228 18.5523 10 18 10H15C14.4477 10 14 9.55228 14 9V6Z" stroke="#415058" stroke-width="1.5" stroke-linecap="round" stroke-linejoin="round"/>
<path d="M13 14C13 13.4477 13.4477 13 14 13H18C18.5523 13 19 13.4477 19 14V18C19 18.5523 18.5523 19 18 19H14C13.4477 19 13 18.5523 13 18V14Z" stroke="#415058" stroke-width="1.5" stroke-linecap="round" stroke-linejoin="round"/>
</svg>
