<svg width="24" height="24" viewBox="0 0 24 24" fill="none" xmlns="http://www.w3.org/2000/svg">
<path d="M3.10101 17.8637L4.13629 14L7.99999 15.0353" stroke="#415058" stroke-width="1.5" stroke-linecap="round" stroke-linejoin="round"/>
<path d="M4.27258 9.92945C4.77492 8.05472 5.94166 6.42653 7.55543 5.34825C9.1692 4.26996 11.1199 3.81511 13.0442 4.06845C14.9685 4.32178 16.735 5.26602 18.0147 6.72524C19.2944 8.18446 20 10.0591 20 12C20 13.9409 19.2944 15.8155 18.0147 17.2748C16.735 18.734 14.9685 19.6782 13.0442 19.9316C11.1199 20.1849 9.1692 19.73 7.55543 18.6518C5.94166 17.5735 4.77492 15.9453 4.27258 14.0706" stroke="#415058" stroke-width="1.5" stroke-linecap="round" stroke-linejoin="round"/>
<path d="M12 8V12L14 14" stroke="#415058" stroke-width="1.5" stroke-linecap="round" stroke-linejoin="round"/>
</svg>
