<svg width="24" height="24" viewBox="0 0 24 24" fill="none" xmlns="http://www.w3.org/2000/svg">
<path d="M4 9.55425C4 9.20946 4.17762 8.88899 4.47 8.70625L11.47 4.33125C11.7943 4.12858 12.2057 4.12858 12.53 4.33125L19.53 8.70625C19.8224 8.88899 20 9.20945 20 9.55424V19C20 19.5523 19.5523 20 19 20H14.8125C14.3638 20 14 19.6362 14 19.1875V15.5C14 14.3954 13.1046 13.5 12 13.5C10.8954 13.5 10 14.3954 10 15.5V19.1875C10 19.6362 9.63623 20 9.1875 20H5C4.44772 20 4 19.5523 4 19V9.55425Z" stroke="#415058" stroke-width="1.5" stroke-linecap="round" stroke-linejoin="round"/>
</svg>
