<svg width="24" height="24" viewBox="0 0 24 24" fill="none" xmlns="http://www.w3.org/2000/svg">
<path d="M5 6C5 5.44772 5.44772 5 6 5H18C18.5523 5 19 5.44772 19 6V8C19 8.55228 18.5523 9 18 9H6C5.44772 9 5 8.55228 5 8V6Z" stroke="#415058" stroke-width="1.5" stroke-linecap="round" stroke-linejoin="round"/>
<path d="M5 13C5 12.4477 5.44772 12 6 12H8C8.55228 12 9 12.4477 9 13V18C9 18.5523 8.55228 19 8 19H6C5.44772 19 5 18.5523 5 18V13Z" stroke="#415058" stroke-width="1.5" stroke-linecap="round" stroke-linejoin="round"/>
<path d="M12 13C12 12.4477 12.4477 12 13 12H18C18.5523 12 19 12.4477 19 13V18C19 18.5523 18.5523 19 18 19H13C12.4477 19 12 18.5523 12 18V13Z" stroke="#415058" stroke-width="1.5" stroke-linecap="round" stroke-linejoin="round"/>
</svg>
