<svg width="24" height="24" viewBox="0 0 24 24" fill="none" xmlns="http://www.w3.org/2000/svg">
<path d="M12 18V20" stroke="#415058" stroke-width="1.5" stroke-linecap="round" stroke-linejoin="round"/>
<path d="M8 20H16" stroke="#415058" stroke-width="1.5" stroke-linecap="round" stroke-linejoin="round"/>
<path d="M11.2482 13.905C10.1955 13.6333 9.36667 12.8046 9.095 11.7518M14.8715 11.8715C14.9551 11.5957 15 11.3031 15 11V7C15 5.34315 13.6569 4 12 4C10.6462 4 9.50191 4.89669 9.12855 6.12854" stroke="#415058" stroke-width="1.5" stroke-linecap="round" stroke-linejoin="round"/>
<path d="M4 4L20 20" stroke="#415058" stroke-width="1.5" stroke-linecap="round" stroke-linejoin="round"/>
<path d="M6 10V11.0043C6 14.318 8.68629 17.0043 12 17.0043C12.7029 17.0043 13.3776 16.8834 14.0045 16.6613M17.1254 14.1254C17.6803 13.216 18 12.1475 18 11.0043V10" stroke="#415058" stroke-width="1.5" stroke-linecap="round" stroke-linejoin="round"/>
</svg>
