<svg width="24" height="24" viewBox="0 0 24 24" fill="none" xmlns="http://www.w3.org/2000/svg">
<path d="M5 5L5 19C5 19.5304 5.22827 20.0391 5.6346 20.4142C6.04093 20.7893 6.59203 21 7.16667 21H16.8333C17.408 21 17.9591 20.7893 18.3654 20.4142C18.7717 20.0391 19 19.5304 19 19V5C19 4.46957 18.7717 3.96086 18.3654 3.58579C17.9591 3.21071 17.408 3 16.8333 3L7.16667 3C6.59203 3 6.04093 3.21071 5.6346 3.58579C5.22827 3.96086 5 4.46957 5 5Z" stroke="#415058" stroke-width="1.5" stroke-linecap="round" stroke-linejoin="round"/>
<path d="M12 18H12.1" stroke="#415058" stroke-width="2" stroke-linecap="round" stroke-linejoin="round"/>
</svg>
