<svg width="24" height="24" viewBox="0 0 24 24" fill="none" xmlns="http://www.w3.org/2000/svg">
<path d="M10.5 4C10.5 3.44772 10.9477 3 11.5 3H12.5C13.0523 3 13.5 3.44772 13.5 4V4.35819C13.5 4.8279 13.8299 5.22708 14.2741 5.37968C14.5262 5.46629 14.7732 5.56722 15.0137 5.68197C15.4341 5.88246 15.9441 5.83124 16.2734 5.50194L16.4929 5.28249C16.8834 4.89196 17.5166 4.89196 17.9071 5.28249L18.6142 5.98959C19.0047 6.38012 19.0047 7.01328 18.6142 7.40381L18.4299 7.58815C18.0949 7.92311 18.0481 8.44405 18.2601 8.8677C18.3991 9.14548 18.5194 9.4322 18.6203 9.72592C18.7729 10.1701 19.1721 10.5 19.6418 10.5H20C20.5523 10.5 21 10.9477 21 11.5V12.5C21 13.0523 20.5523 13.5 20 13.5H19.6418C19.1721 13.5 18.7729 13.8299 18.6203 14.2741C18.5735 14.4104 18.5224 14.5453 18.4672 14.6788C18.4114 14.8133 18.3516 14.9459 18.2878 15.0763C18.0813 15.4984 18.1302 16.0142 18.4625 16.3465L18.7121 16.5962C19.1027 16.9867 19.1027 17.6199 18.7121 18.0104L18.005 18.7175C17.6145 19.108 16.9813 19.108 16.5908 18.7175L16.3393 18.466C16.0073 18.134 15.4921 18.0849 15.0702 18.2908C14.9417 18.3535 14.8112 18.4123 14.6788 18.4672C14.5453 18.5224 14.4104 18.5735 14.2741 18.6203C13.8299 18.7729 13.5 19.1721 13.5 19.6418V20C13.5 20.5523 13.0523 21 12.5 21H11.5C10.9477 21 10.5 20.5523 10.5 20V19.6418C10.5 19.1721 10.1701 18.7729 9.72591 18.6203C9.58964 18.5735 9.45467 18.5224 9.32122 18.4672C9.16742 18.4035 9.01616 18.3344 8.86771 18.2601C8.44407 18.0481 7.92312 18.0949 7.58816 18.4299L7.3005 18.7175C6.90998 19.108 6.27681 19.108 5.88629 18.7175L5.17918 18.0104C4.78866 17.6199 4.78866 16.9867 5.17918 16.5962L5.50194 16.2734C5.83125 15.9441 5.88247 15.434 5.68197 15.0137C5.6294 14.9035 5.57967 14.7918 5.53284 14.6788C5.47756 14.5453 5.4265 14.4104 5.37969 14.2741C5.22709 13.8299 4.82792 13.5 4.3582 13.5H4C3.44772 13.5 3 13.0523 3 12.5V11.5C3 10.9477 3.44772 10.5 4 10.5H4.35819C4.8279 10.5 5.22708 10.1701 5.37968 9.72592C5.47308 9.45405 5.58313 9.18816 5.70921 8.92982C5.91512 8.50788 5.86598 7.99266 5.534 7.66068L5.27711 7.40379C4.88659 7.01327 4.88659 6.3801 5.27711 5.98958L5.98422 5.28247C6.37475 4.89195 7.00791 4.89195 7.39843 5.28247L7.6535 5.53754C7.98578 5.86981 8.50156 5.91872 8.92367 5.71221C9.18394 5.58488 9.45189 5.47382 9.72592 5.37968C10.1701 5.22708 10.5 4.8279 10.5 4.35819V4Z" stroke="#415058" stroke-width="1.5" stroke-linecap="round" stroke-linejoin="round"/>
<circle cx="12" cy="12" r="3" stroke="#415058" stroke-width="1.5" stroke-linecap="round" stroke-linejoin="round"/>
</svg>
