<svg width="24" height="24" viewBox="0 0 24 24" fill="none" xmlns="http://www.w3.org/2000/svg">
<path d="M4 4L20 20" stroke="#415058" stroke-width="1.5" stroke-linecap="round" stroke-linejoin="round"/>
<path d="M3.76774 6.4246C3.30036 6.7907 3 7.36027 3 8V16C3 17.1046 3.89543 18 5 18H14C14.384 18 14.7427 17.8918 15.0473 17.7042M17.6667 14.6667L19.6286 15.4514C20.2855 15.7142 21 15.2304 21 14.523V9.47703C21 8.76957 20.2855 8.28581 19.6286 8.54856L16.6286 9.74856C16.249 9.90042 16 10.2681 16 10.677V8C16 6.89543 15.1046 6 14 6H9" stroke="#415058" stroke-width="1.5" stroke-linecap="round" stroke-linejoin="round"/>
</svg>
