<svg width="24" height="24" viewBox="0 0 24 24" fill="none" xmlns="http://www.w3.org/2000/svg">
<path d="M6.81015 15.1877C7.09197 15.1877 7.36223 15.2997 7.56151 15.4989L11 18.6867C11.6694 19.356 13 18.8819 13 17.9353V6.0647C13 5.11805 11.6694 4.64397 11 5.31335L7.56151 8.50107C7.36224 8.70034 7.09197 8.81229 6.81015 8.81229H4.06257C3.47573 8.81229 3 9.28802 3 9.87486V14.1251C3 14.712 3.47573 15.1877 4.06257 15.1877H6.81015Z" stroke="#415058" stroke-width="1.5" stroke-linecap="round" stroke-linejoin="round"/>
<path d="M16.66 14.6569C17.0314 14.2854 17.3261 13.8445 17.5271 13.3592C17.7281 12.8739 17.8316 12.3537 17.8316 11.8284C17.8316 11.3031 17.7281 10.783 17.5271 10.2977C17.3261 9.81239 17.0314 9.37143 16.66 9" stroke="#415058" stroke-width="1.5" stroke-linecap="round" stroke-linejoin="round"/>
<path d="M18.66 17.3137C19.4029 16.5708 19.9921 15.6889 20.3942 14.7183C20.7962 13.7477 21.0031 12.7074 21.0031 11.6569C21.0031 10.6063 20.7962 9.56599 20.3942 8.59539C19.9921 7.62478 19.4029 6.74287 18.66 6" stroke="#415058" stroke-width="1.5" stroke-linecap="round" stroke-linejoin="round"/>
</svg>
