<svg width="20" height="20" viewBox="0 0 20 20" fill="none" xmlns="http://www.w3.org/2000/svg">
<path d="M8.29289 2.29289C8.48043 2.10536 8.73478 2 9 2H11C11.2652 2 11.5196 2.10536 11.7071 2.29289C11.8946 2.48043 12 2.73478 12 3C12 3.26522 11.8946 3.51957 11.7071 3.70711C11.5196 3.89464 11.2652 4 11 4H9C8.73478 4 8.48043 3.89464 8.29289 3.70711C8.10536 3.51957 8 3.26522 8 3C8 2.73478 8.10536 2.48043 8.29289 2.29289Z" fill="#415058"/>
<path fill-rule="evenodd" clip-rule="evenodd" d="M6 3H5C3.89543 3 3 3.89543 3 5V16C3 17.1046 3.89543 18 5 18H15C16.1046 18 17 17.1046 17 16V5C17 3.89543 16.1046 3 15 3H14C14 3.53043 13.7893 4.03914 13.4142 4.41421C13.0391 4.78929 12.5304 5 12 5H8C7.46957 5 6.96086 4.78929 6.58579 4.41421C6.21071 4.03914 6 3.53043 6 3ZM14.7071 8.29289C15.0976 8.68342 15.0976 9.31658 14.7071 9.70711L9.70711 14.7071C9.31658 15.0976 8.68342 15.0976 8.29289 14.7071L5.29289 11.7071C4.90237 11.3166 4.90237 10.6834 5.29289 10.2929C5.68342 9.90237 6.31658 9.90237 6.70711 10.2929L9 12.5858L13.2929 8.29289C13.6834 7.90237 14.3166 7.90237 14.7071 8.29289Z" fill="#415058"/>
</svg>
