<svg width="20" height="20" viewBox="0 0 20 20" fill="none" xmlns="http://www.w3.org/2000/svg">
<path d="M3.13668 16.2033C2.95444 16.3856 2.95444 16.6811 3.13668 16.8633C3.31893 17.0456 3.61441 17.0456 3.79665 16.8633L10 10.66L16.2033 16.8633C16.3856 17.0456 16.6811 17.0456 16.8633 16.8633C17.0456 16.6811 17.0456 16.3856 16.8633 16.2033L10.66 10L16.8633 3.79665C17.0456 3.6144 17.0456 3.31893 16.8633 3.13668C16.6811 2.95444 16.3856 2.95444 16.2033 3.13668L10 9.34003L3.79665 3.13668C3.61441 2.95444 3.31893 2.95444 3.13668 3.13668C2.95444 3.31893 2.95444 3.61441 3.13668 3.79665L9.34003 10L3.13668 16.2033Z" fill="white"/>
</svg>
