<svg width="14" height="14" viewBox="0 0 14 14" fill="none" xmlns="http://www.w3.org/2000/svg">
<path fill-rule="evenodd" clip-rule="evenodd" d="M5.20292 2.31213C3.78413 1.12981 1.90965 0.5 0 0.5V3.5C1.27295 3.5 2.45072 3.92376 3.28236 4.6168C4.10603 5.30319 4.5 6.16918 4.5 7C4.5 7.83082 4.10603 8.69681 3.28236 9.3832C2.45071 10.0762 1.27295 10.5 0 10.5V13.5C1.90965 13.5 3.78413 12.8702 5.20292 11.6879C5.98772 11.0339 6.60416 10.232 7 9.33978C7.39585 10.232 8.01228 11.0339 8.79708 11.6879C10.2159 12.8702 12.0904 13.5 14 13.5V10.5C12.727 10.5 11.5493 10.0762 10.7176 9.3832C9.89397 8.69681 9.5 7.83082 9.5 7C9.5 6.16918 9.89397 5.30319 10.7176 4.6168C11.5493 3.92376 12.727 3.5 14 3.5V0.5C12.0904 0.5 10.2159 1.12981 8.79708 2.31213C8.01229 2.96613 7.39585 3.76796 7 4.66022C6.60416 3.76796 5.98772 2.96613 5.20292 2.31213Z" fill="white"/>
</svg>
