<svg width="20" height="20" viewBox="0 0 20 20" fill="none" xmlns="http://www.w3.org/2000/svg">
<path fill-rule="evenodd" clip-rule="evenodd" d="M16.0022 16.4425C16.5508 16.506 17 16.0523 17 15.5V14.5C17 13.9477 16.5487 13.5095 16.0051 13.4122C15.1225 13.2544 14.3271 12.8911 13.7176 12.3832C12.894 11.6968 12.5 10.8308 12.5 10C12.5 9.16918 12.894 8.30319 13.7176 7.6168C14.3271 7.10888 15.1225 6.7456 16.0051 6.58776C16.5487 6.49053 17 6.05228 17 5.5V4.5C17 3.94772 16.5508 3.494 16.0022 3.55754C14.4478 3.73755 12.9674 4.33687 11.7971 5.31213C11.0123 5.96613 10.3958 6.76796 10 7.66022C9.60415 6.76796 8.98772 5.96613 8.20292 5.31213C7.03261 4.33688 5.55224 3.73755 3.99783 3.55754C3.44921 3.494 3 3.94772 3 4.5V5.5C3 6.05228 3.45126 6.49053 3.99492 6.58776C4.87745 6.7456 5.67286 7.10888 6.28236 7.6168C7.10603 8.30319 7.5 9.16918 7.5 10C7.5 10.8308 7.10603 11.6968 6.28236 12.3832C5.67286 12.8911 4.87745 13.2544 3.99492 13.4122C3.45126 13.5095 3 13.9477 3 14.5V15.5C3 16.0523 3.44921 16.506 3.99783 16.4425C5.55224 16.2625 7.03261 15.6631 8.20292 14.6879C8.98772 14.0339 9.60415 13.232 10 12.3398C10.3958 13.232 11.0123 14.0339 11.7971 14.6879C12.9674 15.6631 14.4478 16.2625 16.0022 16.4425Z" fill="white"/>
</svg>
