<svg width="20" height="20" viewBox="0 0 20 20" fill="none" xmlns="http://www.w3.org/2000/svg">
<path fill-rule="evenodd" clip-rule="evenodd" d="M2.9229 4.33711C2.53237 4.72764 2.53237 5.3608 2.9229 5.75133L6.45843 9.28686L9.28686 6.45843L5.75133 2.9229C5.3608 2.53237 4.72764 2.53237 4.33711 2.9229L2.9229 4.33711ZM4.33711 4.33711C4.14185 4.53237 4.14185 4.84896 4.33711 5.04422C4.53237 5.23948 4.84896 5.23948 5.04422 5.04422C5.23948 4.84896 5.23948 4.53237 5.04422 4.33711C4.84896 4.14185 4.53237 4.14185 4.33711 4.33711Z" fill="#415058"/>
<path d="M17.065 14.2366C17.4555 14.6271 17.4555 15.2603 17.065 15.6508L15.6508 17.065C15.2603 17.4556 14.6271 17.4556 14.2366 17.065L10.7011 13.5295L13.5295 10.7011L17.065 14.2366Z" fill="#415058"/>
<path fill-rule="evenodd" clip-rule="evenodd" d="M4.27773 13.1193C4.31644 12.9257 4.4116 12.7479 4.5512 12.6083L13.5295 3.63005C14.3105 2.849 15.5769 2.849 16.3579 3.63005C17.139 4.4111 17.139 5.67743 16.3579 6.45848L7.37963 15.4368C7.24003 15.5764 7.06223 15.6715 6.86864 15.7102L4.07126 16.2697C3.86134 16.3117 3.67627 16.1266 3.71825 15.9167L4.27773 13.1193ZM6.10487 13.176C5.90961 12.9807 5.90961 12.6641 6.10487 12.4689L13.1759 5.39782C13.3712 5.20256 13.6878 5.20256 13.883 5.39782C14.0783 5.59308 14.0783 5.90966 13.883 6.10493L6.81198 13.176C6.61672 13.3713 6.30013 13.3713 6.10487 13.176Z" fill="#415058"/>
</svg>
